<svg xmlns="http://www.w3.org/2000/svg" xmlns:xlink="http://www.w3.org/1999/xlink" fill="none" version="1.1" width="20" height="20" viewBox="0 0 20 20"><defs><clipPath id="master_svg0_1_309"><rect x="0" y="0" width="20" height="20" rx="0"/></clipPath></defs><g clip-path="url(#master_svg0_1_309)"><g transform="matrix(1,0,0,-1,0,38.359375)"><g><path d="M2.5,35.4296875Q2.5,35.9765875,2.14844,36.328087499999995Q1.79688,36.6796875,1.25,36.6796875Q0.703125,36.6796875,0.351562,36.328087499999995Q0,35.9765875,0,35.4296875L0,22.3046875Q0.0390625,20.9765675,0.898438,20.0781255Q1.79688,19.21875,3.125,19.1796875L18.75,19.1796875Q19.2969,19.1796875,19.6484,19.5312495Q20,19.8828125,20,20.4296875Q20,20.9765675,19.6484,21.3281275Q19.2969,21.6796875,18.75,21.6796875L3.125,21.6796875Q2.53906,21.7187475,2.5,22.3046875L2.5,35.4296875ZM18.3984,32.0312875Q18.75,32.4218875,18.75,32.9296875Q18.75,33.4374875,18.3984,33.8280875Q18.0078,34.1796875,17.5,34.1796875Q16.9922,34.1796875,16.6016,33.8280875L12.5,29.6874875L10.2734,31.953087500000002Q9.88281,32.3046875,9.375,32.3046875Q8.86719,32.3046875,8.47656,31.953087500000002L4.10156,27.5781275Q3.75,27.1874975,3.75,26.6796875Q3.75,26.1718775,4.10156,25.7812475Q4.49219,25.4296875,5,25.4296875Q5.50781,25.4296875,5.89844,25.7812475L9.375,29.2968875L11.6016,27.0312475Q11.9922,26.6796875,12.5,26.6796875Q13.0078,26.6796875,13.3984,27.0312475L18.3984,32.0312875Z" fill="#000000" fill-opacity="1" style="mix-blend-mode:passthrough"/></g></g></g></svg>